<svg width="20" height="24" viewBox="0 0 20 24" fill="none" xmlns="http://www.w3.org/2000/svg">
<path d="M4.06055 11.3516V9.75195H15.627V11.3516H4.06055ZM4.06055 7.94141V6.3418H15.627V7.94141H4.06055ZM4.06055 14.6211V13.0215H15.627V14.6211H4.06055ZM4.06055 18.084V16.4844H12.1113V18.084H4.06055ZM18.1055 7.11523V3.07227H19.7051V7.11523H18.1055ZM15.6445 4.6543V3.05469H19.6875V4.6543H15.6445ZM0 7.11523V3.07227H1.59961V7.11523H0ZM0.0175781 4.6543V3.05469H4.06055V4.6543H0.0175781ZM0 21.0547V17.0117H1.59961V21.0547H0ZM0.0175781 21.0723V19.4551H4.06055V21.0723H0.0175781ZM18.1055 21.0547V17.0117H19.7051V21.0547H18.1055ZM15.6445 21.0723V19.4551H19.6875V21.0723H15.6445Z" fill="black"/>
</svg>
