<svg width="20" height="24" viewBox="0 0 20 24" fill="none" xmlns="http://www.w3.org/2000/svg">
<g clip-path="url(#clip0_469_1086)">
<path d="M16 5.09375C16.4062 5.09375 16.7812 5.17188 17.125 5.32812C17.4688 5.48437 17.7656 5.70312 18.0156 5.98438C18.2969 6.23437 18.5156 6.53125 18.6719 6.875C18.8281 7.21875 18.9062 7.59375 18.9062 8V17.9844C18.9062 18.3906 18.8281 18.7812 18.6719 19.1562C18.5156 19.5 18.2969 19.7969 18.0156 20.0469C17.7656 20.2969 17.4688 20.5 17.125 20.6562C16.7812 20.8125 16.4062 20.8906 16 20.8906H4C3.59375 20.8906 3.21875 20.8125 2.875 20.6562C2.53125 20.5 2.21875 20.2969 1.9375 20.0469C1.6875 19.7969 1.48438 19.5 1.32812 19.1562C1.17188 18.7812 1.09375 18.3906 1.09375 17.9844V8C1.09375 7.59375 1.17188 7.21875 1.32812 6.875C1.48438 6.53125 1.6875 6.23437 1.9375 5.98438C2.21875 5.70312 2.53125 5.48437 2.875 5.32812C3.21875 5.17188 3.59375 5.09375 4 5.09375H16ZM17.0781 17.9844V8C17.0781 7.84375 17.0469 7.70313 16.9844 7.57812C16.9531 7.45312 16.875 7.34375 16.75 7.25C16.6562 7.125 16.5469 7.04688 16.4219 7.01562C16.2969 6.95313 16.1562 6.92188 16 6.92188H4C3.84375 6.92188 3.70312 6.95313 3.57812 7.01562C3.45312 7.04688 3.32812 7.125 3.20312 7.25C3.10938 7.34375 3.03125 7.45312 2.96875 7.57812C2.9375 7.70313 2.92188 7.84375 2.92188 8V17.9844C2.92188 18.1406 2.9375 18.2969 2.96875 18.4531C3.03125 18.5781 3.10938 18.6875 3.20312 18.7812C3.32812 18.875 3.45312 18.9531 3.57812 19.0156C3.70312 19.0781 3.84375 19.1094 4 19.1094H16C16.1562 19.1094 16.2969 19.0781 16.4219 19.0156C16.5469 18.9531 16.6562 18.875 16.75 18.7812C16.875 18.6875 16.9531 18.5781 16.9844 18.4531C17.0469 18.2969 17.0781 18.1406 17.0781 17.9844ZM13.9844 11.9844C13.7031 11.9844 13.4375 11.9375 13.1875 11.8438C12.9688 11.75 12.7656 11.6094 12.5781 11.4219C12.3906 11.2344 12.25 11.0312 12.1562 10.8125C12.0625 10.5625 12.0156 10.2969 12.0156 10.0156C12.0156 9.73438 12.0625 9.46875 12.1562 9.21875C12.25 8.96875 12.3906 8.76562 12.5781 8.60938C12.7656 8.42188 12.9688 8.28125 13.1875 8.1875C13.4375 8.0625 13.7031 8 13.9844 8C14.2656 8 14.5312 8.0625 14.7812 8.1875C15.0312 8.28125 15.2344 8.42188 15.3906 8.60938C15.5781 8.76562 15.7188 8.96875 15.8125 9.21875C15.9375 9.46875 16 9.73438 16 10.0156C16 10.2969 15.9375 10.5625 15.8125 10.8125C15.7188 11.0312 15.5781 11.2344 15.3906 11.4219C15.2344 11.6094 15.0312 11.75 14.7812 11.8438C14.5312 11.9375 14.2656 11.9844 13.9844 11.9844ZM11.3594 11.9375L15.9531 17.1406C15.9531 17.1719 15.9688 17.2031 16 17.2344C16.0312 17.2656 16.0469 17.2969 16.0469 17.3281C16.0469 17.3594 16.0469 17.3906 16.0469 17.4219C16.0781 17.4531 16.0938 17.4844 16.0938 17.5156C16.0938 17.5781 16.0781 17.6406 16.0469 17.7031C16.0156 17.7656 15.9688 17.8281 15.9062 17.8906C15.875 17.9219 15.8281 17.9531 15.7656 17.9844C15.7031 17.9844 15.6406 17.9844 15.5781 17.9844H4.51562C4.42188 17.9844 4.34375 17.9844 4.28125 17.9844C4.25 17.9531 4.20312 17.9219 4.14062 17.8906C4.10938 17.8281 4.07812 17.7656 4.04688 17.7031C4.01562 17.6406 4 17.5781 4 17.5156V13.0156C4 12.9844 4 12.9531 4 12.9219C4 12.8906 4 12.8594 4 12.8281C4.03125 12.7969 4.04688 12.7656 4.04688 12.7344C4.07812 12.7031 4.10938 12.6875 4.14062 12.6875L6.15625 10.3906C6.1875 10.3594 6.21875 10.3438 6.25 10.3438C6.28125 10.3125 6.3125 10.2969 6.34375 10.2969C6.375 10.2656 6.40625 10.25 6.4375 10.25C6.46875 10.2188 6.5 10.2031 6.53125 10.2031C6.5625 10.2031 6.59375 10.2031 6.625 10.2031C6.65625 10.2031 6.6875 10.2188 6.71875 10.25C6.75 10.25 6.78125 10.2656 6.8125 10.2969C6.84375 10.2969 6.875 10.3125 6.90625 10.3438L9.39062 12.8281L10.7031 11.8438C10.7656 11.8125 10.8281 11.7969 10.8906 11.7969C10.9531 11.7656 11 11.75 11.0312 11.75C11.0938 11.75 11.1562 11.7656 11.2188 11.7969C11.2812 11.8281 11.3281 11.875 11.3594 11.9375Z" fill="black"/>
</g>
<defs>
<clipPath id="clip0_469_1086">
<rect width="20" height="24" fill="white"/>
</clipPath>
</defs>
</svg>
