<svg width="20" height="24" viewBox="0 0 20 24" fill="none" xmlns="http://www.w3.org/2000/svg">
<path d="M0.0175781 19.7012V21.0547H9.54492V19.7012H0.0175781ZM0 16.9766V18.3477H9.52734V16.9766H0ZM7.18945 9.4707H4.55273C4.44727 9.4707 4.3418 9.47656 4.23633 9.48828C4.13086 9.5 4.01953 9.51172 3.90234 9.52344C3.79688 9.53516 3.69141 9.55859 3.58594 9.59375C3.48047 9.61719 3.38672 9.6582 3.30469 9.7168C3.21094 9.76367 3.12305 9.82227 3.04102 9.89258C2.95898 9.95117 2.88867 10.0273 2.83008 10.1211C2.77148 10.2148 2.72461 10.3203 2.68945 10.4375C2.6543 10.5547 2.63672 10.6953 2.63672 10.8594C2.63672 11.0586 2.67188 11.2402 2.74219 11.4043C2.82422 11.5684 2.94141 11.709 3.09375 11.8262C3.23438 11.9316 3.4043 12.0137 3.60352 12.0723C3.80273 12.1309 4.01953 12.1602 4.25391 12.1602C4.39453 12.1602 4.5293 12.1543 4.6582 12.1426C4.79883 12.1191 4.93359 12.0898 5.0625 12.0547C5.19141 12.0312 5.32031 12.002 5.44922 11.9668C5.58984 11.9199 5.72461 11.873 5.85352 11.8262C5.98242 11.7676 6.10547 11.7148 6.22266 11.668C6.35156 11.6094 6.46875 11.5508 6.57422 11.4922C6.69141 11.4336 6.80273 11.3809 6.9082 11.334C7.01367 11.2754 7.10742 11.2168 7.18945 11.1582V9.4707ZM7.1543 13.1797C6.75586 13.4023 6.39258 13.5898 6.06445 13.7422C5.73633 13.8828 5.4375 13.9883 5.16797 14.0586C4.89844 14.1289 4.63477 14.1816 4.37695 14.2168C4.13086 14.252 3.89062 14.2695 3.65625 14.2695C3.11719 14.2695 2.63086 14.1992 2.19727 14.0586C1.76367 13.9062 1.39453 13.6836 1.08984 13.3906C0.773438 13.0859 0.539062 12.7344 0.386719 12.3359C0.234375 11.9258 0.158203 11.4629 0.158203 10.9473C0.158203 10.6426 0.1875 10.3613 0.246094 10.1035C0.316406 9.8457 0.421875 9.61719 0.5625 9.41797C0.691406 9.20703 0.837891 9.01953 1.00195 8.85547C1.16602 8.67969 1.34766 8.52734 1.54688 8.39844C1.74609 8.26953 1.95117 8.1582 2.16211 8.06445C2.38477 7.9707 2.61328 7.89453 2.84766 7.83594C3.08203 7.77734 3.30469 7.73633 3.51562 7.71289C3.73828 7.67773 3.94922 7.66016 4.14844 7.66016H7.18945V6.99219C7.18945 6.66406 7.14258 6.38281 7.04883 6.14844C6.95508 5.91406 6.82031 5.72656 6.64453 5.58594C6.45703 5.44531 6.2168 5.33984 5.92383 5.26953C5.64258 5.19922 5.30859 5.16406 4.92188 5.16406C4.74609 5.16406 4.54102 5.18164 4.30664 5.2168C4.08398 5.24023 3.83789 5.28125 3.56836 5.33984C3.29883 5.38672 3.02344 5.48047 2.74219 5.62109C2.47266 5.76172 2.20312 5.94336 1.93359 6.16602L0.84375 4.4082C1.20703 4.12695 1.57617 3.89844 1.95117 3.72266C2.32617 3.53516 2.70117 3.40039 3.07617 3.31836C3.45117 3.23633 3.80859 3.17188 4.14844 3.125C4.5 3.07812 4.83398 3.05469 5.15039 3.05469C5.90039 3.05469 6.55078 3.14258 7.10156 3.31836C7.66406 3.48242 8.12109 3.72852 8.47266 4.05664C8.83594 4.38477 9.10547 4.80664 9.28125 5.32227C9.45703 5.82617 9.54492 6.41797 9.54492 7.09766V14.1816H7.41797L7.20703 13.2324L7.1543 13.1797Z" fill="black"/>
</svg>
