<svg width="20" height="24" viewBox="0 0 20 24" fill="none" xmlns="http://www.w3.org/2000/svg">
<path d="M16.5 13.5H3.5C2.7 13.5 2 14.2 2 15V21.252C2 21.627 2.281 22.002 2.75 22.002C3.125 22.002 3.5 21.721 3.5 21.252V15H16.5V21.252C16.5 21.627 16.781 22.002 17.25 22.002C17.625 22.002 18 21.721 18 21.252V15C18 14.2 17.3 13.5 16.5 13.5Z" fill="black"/>
<path d="M13.6984 16.8945H9.56044H7.02944H6.19844C5.79844 16.8945 5.39844 17.1945 5.39844 17.6945C5.39844 18.0945 5.69844 18.4945 6.19844 18.4945H7.02944H9.56044H13.6984C14.0984 18.4945 14.4984 18.1945 14.4984 17.6945C14.4984 17.2945 14.1984 16.8945 13.6984 16.8945Z" fill="black"/>
<path d="M13.6984 20.3877H9.56044H7.02944H6.19844C5.79844 20.3877 5.39844 20.6877 5.39844 21.1877C5.39844 21.5877 5.69844 21.9877 6.19844 21.9877H7.02944H9.56044H13.6984C14.0984 21.9877 14.4984 21.6877 14.4984 21.1877C14.4984 20.7877 14.1984 20.3877 13.6984 20.3877Z" fill="black"/>
<path d="M3.5 10.4922H16.5C17.3 10.4922 18 9.79221 18 8.99221V2.74121C18 2.36621 17.719 1.99121 17.25 1.99121C16.875 1.99121 16.5 2.27221 16.5 2.74121V8.99321H3.5V2.74121C3.5 2.36621 3.219 1.99121 2.75 1.99121C2.375 1.99121 2 2.27221 2 2.74121V8.99321C2 9.79221 2.7 10.4922 3.5 10.4922Z" fill="black"/>
<path d="M6.3 7.09805H10.8C11.2 7.09805 11.6 6.79805 11.6 6.29805C11.6 5.89805 11.3 5.49805 10.8 5.49805H6.3C5.9 5.49805 5.5 5.79805 5.5 6.29805C5.5 6.69805 5.8 7.09805 6.3 7.09805Z" fill="black"/>
<path d="M6.3 3.60684H10.438H12.969H13.8C14.2 3.60684 14.6 3.30684 14.6 2.80684C14.6 2.40684 14.3 2.00684 13.8 2.00684H12.969H10.438H6.3C5.9 2.00684 5.5 2.30684 5.5 2.80684C5.5 3.20684 5.8 3.60684 6.3 3.60684Z" fill="black"/>
</svg>
