<svg width="20" height="24" viewBox="0 0 20 24" fill="none" xmlns="http://www.w3.org/2000/svg">
<path d="M17.6709 4.27148C17.8232 4.27148 17.9492 4.30078 18.0488 4.35938C18.1543 4.41797 18.2363 4.49707 18.2949 4.59668C18.3535 4.69629 18.3975 4.80469 18.4268 4.92188C18.4561 5.05664 18.4736 5.22949 18.4795 5.44043C18.4912 5.65137 18.4971 5.88574 18.4971 6.14355C18.4971 8.27051 18.04 9.81738 17.126 10.7842C16.2119 11.7451 14.7119 12.2256 12.626 12.2256H6.48242L4.3291 12.1025L7.29102 14.8008L9.24219 16.7871C9.3125 16.8574 9.36523 16.9424 9.40039 17.042C9.43555 17.1416 9.45312 17.2441 9.45312 17.3496C9.45312 17.5664 9.37988 17.748 9.2334 17.8945C9.08691 18.0352 8.90527 18.1055 8.68848 18.1055C8.47754 18.1055 8.27832 18.0176 8.09082 17.8418L2.27246 12.0322C2.09082 11.8564 2 11.6572 2 11.4346C2 11.2119 2.09082 11.0156 2.27246 10.8457L8.1084 5.00977C8.28418 4.85156 8.47754 4.77246 8.68848 4.77246C8.90527 4.77246 9.08691 4.8457 9.2334 4.99219C9.37988 5.13281 9.45312 5.31152 9.45312 5.52832C9.45312 5.63379 9.43555 5.73633 9.40039 5.83594C9.36523 5.92969 9.3125 6.01172 9.24219 6.08203L7.29102 8.06836L4.32031 10.7842L6.48242 10.6523H12.5469C13.625 10.6523 14.4805 10.4971 15.1133 10.1865C15.752 9.87012 16.209 9.375 16.4844 8.70117C16.7656 8.02734 16.9062 7.14844 16.9062 6.06445C16.9062 5.85352 16.9033 5.67188 16.8975 5.51953C16.8916 5.36133 16.8887 5.20312 16.8887 5.04492C16.8887 4.81641 16.9619 4.63184 17.1084 4.49121C17.2549 4.34473 17.4424 4.27148 17.6709 4.27148Z" fill="black"/>
</svg>
