<svg width="20" height="24" viewBox="0 0 20 24" fill="none" xmlns="http://www.w3.org/2000/svg">
<path d="M17.1875 18.3828C17.2917 18.487 17.3698 18.6042 17.4219 18.7344C17.474 18.8385 17.5 18.9688 17.5 19.125C17.5 19.2552 17.474 19.3854 17.4219 19.5156C17.3698 19.6458 17.2917 19.75 17.1875 19.8281C17.1354 19.8802 17.0703 19.9323 16.9922 19.9844C16.9401 20.0104 16.888 20.0365 16.8359 20.0625C16.7839 20.0885 16.7188 20.1146 16.6406 20.1406C16.5625 20.1406 16.4974 20.1406 16.4453 20.1406C16.3672 20.1406 16.2891 20.1406 16.2109 20.1406C16.1589 20.1146 16.0938 20.0885 16.0156 20.0625C15.9635 20.0365 15.9115 20.0104 15.8594 19.9844C15.8073 19.9323 15.7552 19.8802 15.7031 19.8281L12.3047 16.4688C12.0443 16.651 11.7708 16.8073 11.4844 16.9375C11.224 17.0677 10.9375 17.1849 10.625 17.2891C10.3385 17.3932 10.026 17.4714 9.6875 17.5234C9.375 17.5755 9.0625 17.6016 8.75 17.6016C8.33333 17.6016 7.92969 17.5625 7.53906 17.4844C7.14844 17.3802 6.75781 17.263 6.36719 17.1328C6.0026 16.9766 5.65104 16.7812 5.3125 16.5469C5 16.3125 4.6875 16.0521 4.375 15.7656C4.08854 15.4792 3.82812 15.1667 3.59375 14.8281C3.38542 14.4896 3.20312 14.138 3.04688 13.7734C2.89062 13.4089 2.77344 13.0312 2.69531 12.6406C2.61719 12.224 2.57812 11.8203 2.57812 11.4297C2.57812 11.013 2.61719 10.6094 2.69531 10.2188C2.77344 9.80208 2.89062 9.41146 3.04688 9.04688C3.20312 8.68229 3.38542 8.33073 3.59375 7.99219C3.82812 7.65365 4.08854 7.34115 4.375 7.05469C4.6875 6.76823 5 6.52083 5.3125 6.3125C5.65104 6.07812 6.0026 5.88281 6.36719 5.72656C6.75781 5.57031 7.14844 5.45312 7.53906 5.375C7.92969 5.29688 8.33333 5.25781 8.75 5.25781C9.16667 5.25781 9.57031 5.29688 9.96094 5.375C10.3516 5.45312 10.7292 5.57031 11.0938 5.72656C11.4844 5.88281 11.8359 6.07812 12.1484 6.3125C12.487 6.52083 12.8125 6.76823 13.125 7.05469C13.4115 7.34115 13.6589 7.65365 13.8672 7.99219C14.1016 8.33073 14.2969 8.68229 14.4531 9.04688C14.6094 9.41146 14.7266 9.80208 14.8047 10.2188C14.8828 10.6094 14.9219 11.013 14.9219 11.4297C14.9219 11.7422 14.8958 12.0547 14.8438 12.3672C14.7917 12.6797 14.7135 12.9922 14.6094 13.3047C14.5312 13.5911 14.4141 13.8776 14.2578 14.1641C14.1276 14.4505 13.9714 14.724 13.7891 14.9844L17.1875 18.3828ZM5.46875 14.7109C5.67708 14.9453 5.91146 15.1536 6.17188 15.3359C6.43229 15.4922 6.69271 15.6354 6.95312 15.7656C7.23958 15.8698 7.52604 15.9479 7.8125 16C8.125 16.0521 8.4375 16.0781 8.75 16.0781C9.0625 16.0781 9.36198 16.0521 9.64844 16C9.96094 15.9479 10.2474 15.8698 10.5078 15.7656C10.7943 15.6354 11.0677 15.4922 11.3281 15.3359C11.5885 15.1536 11.8229 14.9453 12.0312 14.7109C12.2656 14.5026 12.4609 14.2682 12.6172 14.0078C12.7995 13.7474 12.9427 13.487 13.0469 13.2266C13.1771 12.9401 13.2682 12.6536 13.3203 12.3672C13.3724 12.0547 13.3984 11.7422 13.3984 11.4297C13.3984 11.1172 13.3724 10.8177 13.3203 10.5312C13.2682 10.2188 13.1771 9.91927 13.0469 9.63281C12.9427 9.34635 12.7995 9.08594 12.6172 8.85156C12.4609 8.59115 12.2656 8.34375 12.0312 8.10938C11.8229 7.90104 11.5885 7.71875 11.3281 7.5625C11.0677 7.38021 10.7943 7.23698 10.5078 7.13281C10.2474 7.0026 9.96094 6.91146 9.64844 6.85938C9.36198 6.78125 9.0625 6.74219 8.75 6.74219C8.4375 6.74219 8.125 6.78125 7.8125 6.85938C7.52604 6.91146 7.23958 7.0026 6.95312 7.13281C6.69271 7.23698 6.43229 7.38021 6.17188 7.5625C5.91146 7.71875 5.67708 7.90104 5.46875 8.10938C5.23438 8.34375 5.02604 8.59115 4.84375 8.85156C4.6875 9.08594 4.54427 9.34635 4.41406 9.63281C4.3099 9.91927 4.23177 10.2188 4.17969 10.5312C4.1276 10.8177 4.10156 11.1172 4.10156 11.4297C4.10156 11.7422 4.1276 12.0547 4.17969 12.3672C4.23177 12.6536 4.3099 12.9401 4.41406 13.2266C4.54427 13.487 4.6875 13.7474 4.84375 14.0078C5.02604 14.2682 5.23438 14.5026 5.46875 14.7109Z" fill="black"/>
</svg>
