<svg width="64" height="64" viewBox="0 0 64 64" fill="none" xmlns="http://www.w3.org/2000/svg">
<rect width="64" height="64" rx="32" fill="#FF7E00"/>
<path d="M31.8097 20.5878C31.8695 20.4032 32.1305 20.4032 32.1903 20.5878L34.3279 27.1909C34.4882 27.6859 34.9492 28.0213 35.4696 28.0213H42.3863C42.5799 28.0213 42.6605 28.2688 42.5041 28.3829L36.904 32.4665C36.4849 32.7721 36.3096 33.3123 36.4694 33.8057L38.6086 40.4137C38.6683 40.5981 38.4571 40.7511 38.3005 40.6369L32.707 36.5581C32.2857 36.2509 31.7143 36.2509 31.293 36.5581L25.6995 40.6369C25.5429 40.7511 25.3317 40.5981 25.3914 40.4137L27.5306 33.8057C27.6904 33.3123 27.5151 32.7721 27.096 32.4665L21.4959 28.3829C21.3395 28.2688 21.4201 28.0213 21.6137 28.0213H28.5304C29.0508 28.0213 29.5118 27.6859 29.6721 27.1909L31.8097 20.5878Z" stroke="white" stroke-width="2"/>
<path d="M14.7001 16.4378L31.7001 11.0943C31.8953 11.0329 32.1047 11.0329 32.2999 11.0943L49.2999 16.4378C49.7165 16.5688 50.0003 16.964 49.9984 17.4008C49.9007 39.2722 45.44 48.2285 32.3897 53.8346C32.1434 53.9405 31.8566 53.9405 31.6103 53.8346C18.56 48.2285 14.0993 39.2722 14.0016 17.4008C13.9997 16.964 14.2835 16.5688 14.7001 16.4378Z" stroke="white" stroke-width="2" stroke-linecap="round"/>
</svg>
