<svg width="64" height="64" viewBox="0 0 64 64" fill="none" xmlns="http://www.w3.org/2000/svg">
<rect width="64" height="64" rx="32" fill="#FF7E00"/>
<path d="M11.2108 20C9.16873 23.5301 8 27.6286 8 32C8 36.3714 9.16873 40.4699 11.2108 44" stroke="white" stroke-width="2" stroke-linecap="round"/>
<path d="M16.4081 23C14.8765 25.6476 14 28.7214 14 32C14 35.2786 14.8765 38.3524 16.4081 41" stroke="white" stroke-width="2" stroke-linecap="round"/>
<path d="M53.1974 44C55.2395 40.4699 56.4082 36.3714 56.4082 32C56.4082 27.6286 55.2395 23.5301 53.1974 20" stroke="white" stroke-width="2" stroke-linecap="round"/>
<path d="M48.0001 41C49.5317 38.3524 50.4082 35.2786 50.4082 32C50.4082 28.7214 49.5317 25.6476 48.0001 23" stroke="white" stroke-width="2" stroke-linecap="round"/>
<path d="M44.2041 11.0067C40.674 8.96463 36.5755 7.7959 32.2041 7.7959C27.8327 7.7959 23.7342 8.96463 20.2041 11.0067" stroke="white" stroke-width="2" stroke-linecap="round"/>
<path d="M41.2041 16.204C38.5565 14.6724 35.4827 13.7959 32.2041 13.7959C28.9255 13.7959 25.8517 14.6724 23.2041 16.204" stroke="white" stroke-width="2" stroke-linecap="round"/>
<path d="M20.2041 52.9933C23.7342 55.0354 27.8327 56.2041 32.2041 56.2041C36.5755 56.2041 40.674 55.0354 44.2041 52.9933" stroke="white" stroke-width="2" stroke-linecap="round"/>
<path d="M23.2041 47.796C25.8517 49.3276 28.9255 50.2041 32.2041 50.2041C35.4827 50.2041 38.5565 49.3276 41.2041 47.796" stroke="white" stroke-width="2" stroke-linecap="round"/>
<path d="M31.2119 26.2441C28.2769 23.7944 24.9747 24.8837 23.1893 26.9998C18.9459 32.0291 27.4468 37.8756 31.2727 41.3154C31.6834 41.6847 32.3164 41.6847 32.7271 41.3154C36.5529 37.8756 45.0538 32.0291 40.8104 26.9998C39.025 24.8837 35.7228 23.7944 32.7879 26.2441C32.3376 26.62 31.6622 26.62 31.2119 26.2441Z" stroke="white" stroke-width="2" stroke-linecap="round"/>
</svg>
