<svg width="197" height="32" viewBox="0 0 197 32" fill="none" xmlns="http://www.w3.org/2000/svg">
<g clip-path="url(#clip0_1795_4213)">
<path d="M149.72 25.344C153.289 25.344 156.134 24.7678 158.911 23.5079V18.2974C158.911 18.1949 158.804 18.1314 158.71 18.1802C155.836 19.6891 153.206 20.3435 149.72 20.3435C145.501 20.3435 143.341 18.3267 143.341 14.4397C143.341 10.5526 145.507 8.53577 149.72 8.53577C153.21 8.53577 155.836 9.19012 158.71 10.6991C158.804 10.7479 158.911 10.6844 158.911 10.5819V5.37148C156.134 4.1116 153.289 3.53537 149.72 3.53537C142.079 3.53537 137.685 7.49571 137.685 14.4446C137.685 21.3934 142.079 25.3538 149.72 25.3538V25.344Z" fill="#FF5500"/>
<path d="M135.121 14.7908C135.121 6.97755 130.331 3.55927 123.442 3.55927C115.948 3.55927 111.407 7.66121 111.407 14.3611C111.407 22.6089 116.526 25.3435 123.951 25.3435C128.459 25.3435 132.027 24.6209 134.476 23.6539V18.6584C134.476 18.5558 134.369 18.4923 134.281 18.5363C132.506 19.4202 128.468 20.4848 124.024 20.4848C120.123 20.4848 117.665 19.22 117.117 16.1289H134.829C134.94 16.1289 135.034 16.0458 135.053 15.9384C135.106 15.5624 135.131 15.1668 135.131 14.7957L135.121 14.7908ZM123.442 8.23744C126.933 8.23744 128.859 9.80007 129.573 12.0904H117.215C117.821 9.61949 119.703 8.23744 123.438 8.23744" fill="#FF5500"/>
<path d="M98.6059 3.52089C94.8417 3.52089 92.2753 4.99072 90.6767 7.16866C90.6377 7.22237 90.5496 7.19796 90.5496 7.1296L90.4616 4.09714H85.094V32H90.6083V21.7939C90.6083 21.7256 90.6914 21.6963 90.7354 21.7549C92.3339 23.8986 94.8858 25.3441 98.6108 25.3441C104.99 25.3441 108.955 20.7734 108.955 14.4349C108.955 8.09645 104.99 3.52571 98.6108 3.52571M96.9536 20.3383C93.2383 20.3383 90.6083 17.9992 90.6083 14.4344C90.6083 10.8697 93.2383 8.53063 96.9536 8.53063C100.952 8.53063 103.152 10.7965 103.152 14.4344C103.152 18.0725 100.952 20.3383 96.9536 20.3383Z" fill="#FF5500"/>
<path d="M67.5345 24.8022H73.0486V9.10736H82.2734V4.10199H58.3054V9.10736H67.535L67.5345 24.8022Z" fill="#0A1E78"/>
<path d="M38.3307 15.5725V4.09712H32.7822V25.1337C32.7822 25.4315 33.1195 25.6025 33.3591 25.4267L50.0096 13.3067V24.8016H55.558V3.76501C55.558 3.46713 55.2208 3.29622 54.9813 3.47201L38.3308 15.568L38.3307 15.5725Z" fill="#0A1E78"/>
<path d="M2.66918 25.0516C1.12928 25.0516 0 24.9833 0 24.9833V20.0073H0.894596C1.93586 20.0073 2.72294 19.7583 3.24106 19.2601C3.76413 18.762 4.15032 17.9514 4.3996 16.8234C4.64892 15.7002 4.84446 14.0106 4.98623 11.7594C5.07912 10.1724 5.17689 7.62821 5.26976 4.12204C5.29421 3.03306 5.32843 1.65598 5.37731 0.000549316H27.6201V24.8028H21.4997V4.76169H11.1017C11.0773 5.09376 11.0186 6.40741 10.9257 8.70741C10.8768 10.3188 10.8328 11.3395 10.784 11.7643C10.5689 15.2021 10.2364 17.8293 9.7867 19.6508C9.33695 21.4771 8.56462 22.8298 7.4744 23.7185C6.38426 24.6073 4.78085 25.0516 2.67386 25.0516H2.66918Z" fill="#0A1E78"/>
<path d="M171.345 4.0823C171.189 4.0823 171.145 4.17997 171.257 4.28739C171.863 4.89781 172.245 5.73768 172.245 6.66557C172.245 7.59345 171.869 8.43334 171.262 9.03882C171.145 9.15602 171.184 9.2488 171.404 9.2488H184.432C185.17 8.63351 185.644 7.7008 185.644 6.66069C185.644 5.62057 185.17 4.69269 184.432 4.07257H171.351L171.345 4.0823Z" fill="#0A1E78"/>
<path d="M171.345 11.8571C171.189 11.8571 171.145 11.9547 171.257 12.0621C171.863 12.6725 172.245 13.5125 172.245 14.4403C172.245 15.3681 171.869 16.2081 171.262 16.8136C171.145 16.9308 171.184 17.0235 171.404 17.0235H179.352C180.09 16.4083 180.565 15.4755 180.565 14.4354C180.565 13.3953 180.09 12.4675 179.352 11.8473H171.351L171.345 11.8571Z" fill="#0A1E78"/>
<path d="M171.344 19.6308C171.178 19.6308 171.138 19.7236 171.261 19.8409C171.867 20.4513 172.244 21.2863 172.244 22.2189C172.244 23.1517 171.867 23.9867 171.261 24.5923C171.144 24.7095 171.183 24.8023 171.402 24.8023H174.277C175.016 24.1869 175.489 23.2543 175.489 22.2141C175.489 21.174 175.016 20.2461 174.277 19.626H171.349L171.344 19.6308Z" fill="#0A1E78"/>
<path d="M194.916 4.08264H191.421C192.159 4.70281 192.633 5.62573 192.633 6.67076C192.633 7.71579 192.159 8.63876 191.421 9.25887H194.916C195.654 8.64358 196.128 7.71579 196.128 6.67076C196.128 5.62573 195.654 4.70276 194.916 4.08264Z" fill="#FF5500"/>
<path d="M191.421 4.08264H187.925C188.664 4.70281 189.138 5.62573 189.138 6.67076C189.138 7.71579 188.664 8.63876 187.925 9.25887H191.421C192.159 8.64358 192.632 7.71579 192.632 6.67076C192.632 5.62573 192.159 4.70276 191.421 4.08264Z" fill="#6262D9"/>
<path d="M194.916 11.856H186.343C187.08 12.4762 187.554 13.3991 187.554 14.4441C187.554 15.4891 187.08 16.4121 186.343 17.0322H194.916C195.655 16.417 196.129 15.4891 196.129 14.4441C196.129 13.3991 195.655 12.4762 194.916 11.856Z" fill="#FF5500"/>
<path d="M186.341 11.856H182.845C183.583 12.4762 184.058 13.3991 184.058 14.4441C184.058 15.4891 183.583 16.4121 182.845 17.0322H186.341C187.079 16.417 187.553 15.4891 187.553 14.4441C187.553 13.3991 187.079 12.4762 186.341 11.856Z" fill="#6262D9"/>
<path d="M187.924 4.08263H184.43C185.168 4.7028 185.642 5.62571 185.642 6.67074C185.642 7.71577 185.168 8.63874 184.43 9.25886H187.924C188.663 8.64356 189.137 7.71577 189.137 6.67074C189.137 5.62571 188.663 4.70274 187.924 4.08263Z" fill="#3D3DC7"/>
<path d="M182.846 11.856H179.351C180.089 12.4762 180.564 13.3991 180.564 14.4441C180.564 15.4891 180.089 16.4121 179.351 17.0322H182.846C183.585 16.417 184.058 15.4891 184.058 14.4441C184.058 13.3991 183.585 12.4762 182.846 11.856Z" fill="#3D3DC7"/>
<path d="M194.916 19.6308H181.269C182.006 20.251 182.48 21.1739 182.48 22.219C182.48 23.264 182.006 24.1868 181.269 24.8071H194.916C195.655 24.1918 196.129 23.264 196.129 22.219C196.129 21.1739 195.655 20.251 194.916 19.6308Z" fill="#FF5500"/>
<path d="M181.262 19.6309H177.767C178.504 20.251 178.979 21.1739 178.979 22.219C178.979 23.264 178.504 24.1869 177.767 24.8071H181.262C182 24.1918 182.474 23.264 182.474 22.219C182.474 21.1739 182 20.251 181.262 19.6309Z" fill="#6262D9"/>
<path d="M177.767 19.6309H174.272C175.01 20.251 175.485 21.1739 175.485 22.219C175.485 23.264 175.01 24.1869 174.272 24.8071H177.767C178.506 24.1918 178.98 23.264 178.98 22.219C178.98 21.1739 178.506 20.251 177.767 19.6309Z" fill="#3D3DC7"/>
</g>
<defs>
<clipPath id="clip0_1795_4213">
<rect width="197" height="32" fill="white"/>
</clipPath>
</defs>
</svg>
