<svg width="130" height="40" viewBox="0 0 130 40" fill="none" xmlns="http://www.w3.org/2000/svg">
<path d="M31.6355 13.1883H28.1616V39.0658H31.6355V13.1883Z" fill="#46545B"/>
<path d="M29.8762 4.12216C28.5627 4.12216 27.4937 5.19155 27.4937 6.50632C27.4937 7.82109 28.5627 8.89116 29.8762 8.89116C31.1897 8.89116 32.258 7.82109 32.258 6.50632C32.258 5.19155 31.1897 4.12216 29.8762 4.12216Z" fill="#46545B"/>
<path d="M58.3725 33.8757C58.3725 23.6344 58.3004 13.3902 58.377 3.14919C57.2166 3.31444 56.058 3.4923 54.8987 3.66498V14.4199C53.2725 13.1294 51.3539 12.4758 49.1841 12.4758C44.9539 12.4758 38.6606 16.1706 38.6606 26.3494C38.6606 33.6762 41.5961 39.9554 48.9174 39.9554C51.3809 39.9554 53.7851 38.7129 55.4639 36.6012C55.9607 37.8729 56.726 38.9267 57.6316 39.9541C58.5265 39.647 59.4237 39.3448 60.3282 39.0671C59.1783 37.4285 58.3725 35.9067 58.3725 33.8757ZM54.8555 30.0483C54.5171 34.2123 51.7064 36.7012 49.1841 36.7012C43.7689 36.7012 42.0453 30.7589 42.0453 26.3048C42.0453 22.1336 44.0233 15.6413 49.1321 15.6413C49.1483 15.642 49.1794 15.6542 49.1841 15.6413C52.5729 15.6413 54.4145 18.2547 54.8541 18.9685L54.8555 30.0483Z" fill="#46545B"/>
<path d="M85.2076 21.675C84.4285 16.2833 80.8481 12.4311 75.2102 12.4311C70.98 12.4311 64.686 16.126 64.686 26.3048C64.686 30.7783 65.8611 34.4097 68.0842 36.8067C69.9427 38.8089 72.4724 39.9107 75.2102 39.9107C78.5108 39.9107 81.8393 38.3946 84.4381 36.4272C83.8778 35.637 83.3055 34.8554 82.7422 34.0673C81.8482 34.6017 80.9551 35.1343 80.0009 35.5575C78.2897 36.3159 76.677 36.7012 75.2102 36.7012C72.8236 36.7012 70.9786 35.6088 69.7226 33.4538C68.7325 31.7531 68.1531 29.4237 68.0788 26.8631C73.7707 26.8631 79.4625 26.8618 85.1543 26.8632C85.4198 25.1602 85.4589 23.3805 85.2076 21.675ZM80.972 19.0644C81.5501 20.3116 81.8729 21.8542 81.9364 23.6536H68.2882C68.6729 19.963 71.0672 15.5967 75.2548 15.5967C77.9847 15.5967 79.9023 16.7575 80.972 19.0644Z" fill="#46545B"/>
<path d="M100.819 12.3426C98.669 12.3426 96.7133 13.51 95.3587 15.5737C94.9588 14.4752 94.2795 13.5752 93.5357 12.6802C92.6678 12.9804 90.9285 13.5304 90.9285 13.5304C91.2002 14.135 91.8219 15.1281 92.0104 15.7657C92.2022 16.4092 92.4318 17.4077 92.4318 18.5115V39.0212H95.9057V24.1674C95.9057 21.8096 96.4189 19.6478 97.3495 18.0809C98.2152 16.6228 99.3687 15.8198 100.598 15.8198C102.1 15.8198 102.91 16.2695 104.205 17.4388C104.728 16.3166 105.245 15.188 105.718 14.0437C104.29 12.8469 103.095 12.3426 100.819 12.3426Z" fill="#46545B"/>
<path d="M126.892 16.1544C124.892 13.6966 122.053 12.3426 118.898 12.3426C115.74 12.3426 112.924 13.6878 110.968 16.1307C108.98 18.6129 107.929 22.084 107.929 26.1709C107.929 30.2579 108.98 33.7297 110.968 36.2118C112.925 38.6548 115.741 40 118.898 40C122.074 40 124.92 38.6413 126.91 36.1753C128.932 33.6702 130 30.1957 130 26.1263C130 22.1029 128.925 18.6541 126.892 16.1544ZM126.526 26.2156C126.526 30.8001 124.367 36.8797 118.898 36.8797C113.442 36.8797 111.404 30.81 111.404 26.2602C111.404 21.7072 113.45 15.6859 118.898 15.6859C124.332 15.6859 126.526 21.6308 126.526 26.2156Z" fill="#46545B"/>
<path d="M123.343 0L119.754 8.48751L122.072 9.73671L126.587 1.43442L123.343 0Z" fill="#FF7E00"/>
<path d="M19.6355 33.0889L15.2296 26.5614C14.329 25.2271 13.6753 24.0061 12.0303 23.0657C13.1786 22.7167 14.2155 22.2102 15.1384 21.5415C17.4036 19.9009 18.7779 16.9024 18.7779 14.1481C18.7779 8.78157 14.177 4.41547 8.52183 4.41547H0V38.9766H3.47385V23.924C3.47385 23.924 4.38989 23.924 5.68338 23.924C8.08485 23.924 9.38937 24.2881 10.6742 26.1832L17.3361 36.0091C18.2756 37.3553 19.1326 38.1726 20.2415 38.7057C20.331 38.7488 20.421 38.7888 20.5115 38.8258C21.0374 39.0409 21.7237 39.1189 22.1475 39.1299C22.579 39.1411 23.3526 39.1294 23.3526 39.1294L24.0323 36.4046C21.3684 36.0091 20.7681 34.7117 19.6355 33.0889ZM3.47385 20.5255V7.89267H8.52183C11.9852 7.89267 15.304 10.544 15.304 14.1481C15.304 17.7659 12.0133 20.5255 8.52183 20.5255H3.47385Z" fill="#46545B"/>
</svg>
