<svg width="224" height="32" viewBox="0 0 224 32" fill="none" xmlns="http://www.w3.org/2000/svg">
<g clip-path="url(#clip0_1795_4232)">
<mask id="mask0_1795_4232" style="mask-type:luminance" maskUnits="userSpaceOnUse" x="0" y="0" width="224" height="32">
<path d="M0 0.250061H223.884V31.7501H0V0.250061Z" fill="white"/>
</mask>
<g mask="url(#mask0_1795_4232)">
<path d="M51.6798 31.9458H48.2016V27.9476H38.5685V31.9447H35.0903V24.8887H36.2385C36.6099 24.1462 36.9112 23.2657 37.1424 22.2472C37.3742 21.2039 37.56 20.1033 37.6995 18.9453C37.8384 17.7873 37.931 16.6053 37.9776 15.3993C38.0228 14.2527 38.046 13.1054 38.0474 11.9579V10.4651H49.8372V24.8898H51.6798V31.9458ZM11.8596 7.05857H9.98094C8.24222 7.05857 6.93237 7.45232 6.05138 8.23982C5.17038 9.02732 4.72989 10.0702 4.72989 11.3684C4.72989 12.1109 4.81094 12.7597 4.97303 13.3147C5.13512 13.8479 5.36699 14.3463 5.66866 14.8098C5.99434 15.2733 6.38831 15.7136 6.85057 16.1306C7.33835 16.5236 7.90679 16.9406 8.5559 17.3816L10.6766 18.8069L4.55542 27.9487H0L5.49532 19.7801C4.70738 19.2243 4.00011 18.6566 3.37351 18.0768C2.79214 17.5256 2.27826 16.9074 1.84265 16.2352C1.42552 15.587 1.098 14.8854 0.868985 14.1494C0.652778 13.321 0.547551 12.4676 0.55606 11.6114C0.55606 10.4527 0.75342 9.39857 1.14814 8.44907C1.55024 7.49687 2.16926 6.65168 2.9559 5.98081C3.74384 5.28557 4.71788 4.75269 5.87803 4.38219C7.05994 3.98844 8.41595 3.79156 9.94605 3.79156H16.0672V27.9476H11.8596V7.05857ZM56.9669 20.5788C57.0352 22.1538 57.4059 23.3238 58.079 24.0888C58.7522 24.8538 59.8883 25.2363 61.4874 25.2363C62.4607 25.2363 63.4231 25.0739 64.3747 24.7492C65.348 24.4012 66.1475 24.0187 66.7734 23.6017V26.7652C66.1708 27.1822 65.4057 27.5414 64.4782 27.8429C63.5507 28.1444 62.4378 28.2952 61.1396 28.2952C58.5432 28.2952 56.5377 27.5534 55.1231 26.0699C53.7319 24.5872 53.0362 22.3166 53.0362 19.2581C53.0362 17.9373 53.1754 16.7204 53.4538 15.6074C53.7555 14.4959 54.2076 13.5344 54.8102 12.7229C55.3908 11.9057 56.1682 11.2479 57.0705 10.8104C57.998 10.3477 59.0763 10.1163 60.3055 10.1163C61.3021 10.1163 62.2063 10.2667 63.0183 10.5674C63.8528 10.8689 64.5596 11.3557 65.139 12.0277C65.719 12.6997 66.1595 13.5686 66.4605 14.6343C66.7854 15.6768 66.9479 16.9631 66.9479 18.4931V20.5788H56.9669ZM33.0034 10.4651V27.9476H29.2123V20.5451H23.3354V27.9476H19.5443V10.4651H23.3354V17.4851H29.2123V10.4651H33.0034ZM73.8671 19.1546V27.9487H70.0771V10.4651H73.8671V18.9116L79.9883 10.4651H83.9527L78.006 18.6674L84.7181 27.9487H80.2663L73.8671 19.1546ZM92.8215 28.2963C90.0863 28.2963 88.0575 27.5201 86.7353 25.9676C85.437 24.4151 84.7879 22.1673 84.7879 19.2243C84.7879 17.9036 84.95 16.6867 85.2742 15.5737C85.6224 14.4382 86.1211 13.4767 86.7702 12.6892C87.4381 11.8825 88.2832 11.2408 89.2398 10.8138C90.2131 10.3503 91.3488 10.1186 92.6471 10.1186C93.6444 10.1186 94.5025 10.1996 95.2214 10.3616C95.9395 10.5011 96.5076 10.6979 96.9256 10.9522V14.2889C96.5316 14.0347 95.9868 13.7913 95.2912 13.5588C94.5843 13.3253 93.8441 13.2083 93.0996 13.2123C91.6858 13.2123 90.5962 13.7103 89.8307 14.7063C89.0878 15.6791 88.7168 17.1506 88.7175 19.1208C88.7175 20.9973 89.0537 22.4804 89.7261 23.5702C90.3984 24.6592 91.5113 25.2037 93.0647 25.2037C93.8999 25.2037 94.6188 25.0994 95.2214 24.8909C95.8227 24.6713 96.395 24.3793 96.9256 24.0213V27.2197C96.3969 27.5852 95.8083 27.8555 95.1865 28.0184C94.5374 28.2044 93.7491 28.2963 92.8215 28.2963ZM46.0461 13.5239H41.386V14.2529C41.386 15.0179 41.3627 15.8756 41.3162 16.8258C41.2704 17.7761 41.1894 18.7376 41.073 19.7103C40.9575 20.6838 40.795 21.6224 40.5856 22.5262C40.401 23.4299 40.1579 24.2174 39.8562 24.8887H46.0461V13.5239ZM60.2357 13.1752C59.1686 13.1752 58.3687 13.5693 57.8359 14.3576C57.3031 15.1226 57.0134 16.2464 56.9669 17.7292H63.087V17.2769C63.087 16.6987 63.0408 16.1662 62.9485 15.6794C62.8719 15.2118 62.7065 14.7631 62.4611 14.3576C62.2576 13.9931 61.9568 13.6924 61.5921 13.4891C61.2439 13.2806 60.7918 13.1752 60.2357 13.1752Z" fill="#22201F"/>
<path fill-rule="evenodd" clip-rule="evenodd" d="M124.611 21.1447C123.198 23.5106 121.005 24.5534 118.7 24.5534C114.091 24.5534 110.657 21.3134 110.657 16.4534V16.2127C110.657 15.9832 110.666 15.7728 110.681 15.5523L130.555 15.5827V0.277061L118.683 8.84169L106.873 0.250061V31.7501H130.555V24.5534C128.262 24.5444 126.175 23.5016 124.611 21.1447Z" fill="#22201F"/>
<path fill-rule="evenodd" clip-rule="evenodd" d="M118.701 21.9142C121.022 21.9142 122.444 20.7138 122.631 18.0127H114.194C114.564 20.4449 116.443 21.9142 118.701 21.9142ZM126.593 18.0127H135.131C134.762 20.4449 132.778 21.9131 130.52 21.9131C128.201 21.9131 126.779 20.7138 126.593 18.0127Z" fill="#22201F"/>
<path d="M213.107 10.4651V21.3101L219.437 10.4651H223.123V27.9476H219.124V17.1386L212.794 27.9487H209.108V10.4651H213.107ZM206.672 10.4651V13.7321H200.273V27.9487H196.134V10.4651H206.672ZM182.643 10.4651V21.3101L188.973 10.4651H192.659V27.9476H188.66V17.1386L182.329 27.9487H178.643V10.4651H182.643ZM175.163 10.4651V27.9476H171.025V20.6486H165.494V27.9487H161.357V10.4651H165.494V17.3816H171.025V10.4651H175.163ZM147.054 16.6166V27.9487H142.847V3.79156H147.054V14.9144L154.532 3.79156H158.809L151.019 15.2958L159.61 27.9487H154.705L147.054 16.6166Z" fill="#22201F"/>
</g>
</g>
<defs>
<clipPath id="clip0_1795_4232">
<rect width="224" height="32" fill="white"/>
</clipPath>
</defs>
</svg>
