<?xml version="1.0" encoding="utf-8"?>
<!-- Generator: Adobe Illustrator 22.0.1, SVG Export Plug-In . SVG Version: 6.00 Build 0)  -->
<svg version="1.1" id="Layer_1" xmlns="http://www.w3.org/2000/svg" xmlns:xlink="http://www.w3.org/1999/xlink" x="0px" y="0px"
	 viewBox="0 0 144.299 23.917" style="enable-background:new 0 0 144.299 23.917;" xml:space="preserve">
<style type="text/css">
	.st0{fill:#DA2625;}
</style>
<g>
	<path class="st0" d="M108.479,16.088c1.504,1.685,3.305,2.196,5.159,2.361c1.843,0.164,3.713,0.036,5.71,0.036
		c-1.826,2.712-4.277,4.327-7.47,4.672c-5.942,0.642-11.114-3.783-11.323-9.607c-0.217-6.044,4.54-10.809,10.616-10.632
		c4.383,0.127,8.479,3.469,9.487,7.697c0.187,0.783-0.028,1.2-0.713,1.647c-3.058,1.993-6.535,2.732-10.01,3.502
		C109.526,15.854,109.117,15.945,108.479,16.088z M111.05,11.989c1.701-0.642,3.358-1.267,5.1-1.924
		c-1.109-1.239-2.411-1.549-3.567-0.999C111.403,9.628,110.858,10.577,111.05,11.989z"/>
	<path d="M53.389,2.139c1.086,0.002,3.297,1.791,3.363,2.748c0.03,0.432-0.213,1.083-0.55,1.308
		c-2.92,1.949-5.886,3.829-8.847,5.716c-0.749,0.477-1.151,0.144-1.169-0.652c-0.034-1.516-0.026-3.034,0.008-4.55
		c0.005-0.224,0.195-0.533,0.391-0.651c2.044-1.24,4.105-2.453,6.168-3.663C52.986,2.257,53.26,2.189,53.389,2.139z"/>
	<g>
		<path d="M92.053,0.451c-2.511-0.81-5.769-0.289-5.958-0.248c-7.987,1.725-8.949,12.623-4.698,16.984
			c2.763,2.835,7.291,3.793,11.182,2.183c3.677-1.521,5.948-5.226,5.814-9.485C98.252,5.432,95.759,1.647,92.053,0.451z
			 M89.309,14.933c-3.333,0.025-5.891-2.38-5.954-5.6c-0.068-3.43,2.46-6.474,5.405-6.508c3.396-0.039,6.184,2.943,6.183,6.613
			C94.941,12.488,92.459,14.909,89.309,14.933z"/>
		<path d="M144,22.294c-1.219-0.872-2.339-1.966-3.679-2.566c-2.105-0.943-4.322-1.699-6.559-2.269
			c-3.148-0.802-6.385-1.122-9.629-0.691c-0.997,0.132-1.967,0.594-2.902,1.009c-0.509,0.226-0.641,0.666-0.113,1.133
			c1.214,1.074,3.683,1.264,5.057,0.424c0.458-0.28,1.025-0.53,1.544-0.532c1.273-0.005,2.555,0.071,3.817,0.242
			c4.096,0.556,7.249,3.362,11.025,4.69c0.48,0,1.028,0.412,1.44,0C144.412,23.322,144.385,22.734,144,22.294z"/>
		<path d="M33.574,1.843C32.476,1.652,31.354,1.6,30.245,1.47c-1.026-0.121-1.536,0.279-1.678,1.344
			c-0.346,2.612-0.755,5.217-1.181,7.817c-0.143,0.873-0.414,1.725-0.627,2.587c-0.143,0.019-0.286,0.038-0.429,0.057
			c-0.23-0.416-0.53-0.808-0.679-1.251c-0.738-2.195-1.453-4.398-2.144-6.608c-1.043-3.337-1.353-3.549-4.869-3.164
			c-0.119,0.013-0.238,0.031-0.357,0.047c-1.427,0.193-1.525,0.335-0.795,1.639c0.76,1.358,1.577,2.686,2.423,3.993
			c1.606,2.481,3.298,4.907,4.859,7.415c0.902,1.449-0.432,4.839-2.047,5.352c-0.362,0.115-0.857-0.031-1.242-0.181
			c-0.591-0.232-1.119-0.737-1.714-0.813c-0.483-0.062-1.084,0.26-1.502,0.582c-0.107,0.083,0.166,0.917,0.46,1.209
			c0.531,0.528,1.186,0.948,1.832,1.342c1.878,1.144,3.974,0.839,5.406-0.827c0.514-0.598,0.969-1.288,1.285-2.009
			c2.402-5.488,4.753-10.998,7.145-16.49C34.803,2.564,34.511,2.006,33.574,1.843z"/>
		<path d="M131.536,14.353c0.797-3.011,1.572-6.027,2.402-9.029c0.194-0.702,0.574-1.352,0.869-2.026
			c0.132,0.036,0.264,0.073,0.396,0.109c0.071,0.705,0.187,1.409,0.205,2.115c0.079,3.075,0.111,6.152,0.213,9.226
			c0.013,0.401,0.257,1.063,0.526,1.14c1.273,0.363,2.593,0.565,4.103,0.866c-1.505-5.25-2.908-10.201-4.362-15.136
			c-0.141-0.477-0.617-1.218-0.911-1.206c-0.496,0.02-0.996,0.515-1.443,0.875c-0.2,0.161-0.278,0.477-0.406,0.726
			c-2.015,3.904-4.031,7.807-6.041,11.713c-0.137,0.266-0.228,0.556-0.426,1.045c1.545,0.34,2.963,0.652,4.481,0.986
			C131.323,15.115,131.435,14.736,131.536,14.353z"/>
		<path d="M50.262,13.934c-2.035-1.746-1.611-1.542-3.167,0.183c-0.401,0.444-0.848,0.849-1.226,1.312
			c-0.687,0.841-0.51,1.36,0.451,1.871c0.833,0.443,1.641,0.953,2.393,1.522c0.889,0.673,1.684,1.471,2.569,2.151
			c0.273,0.21,0.785,0.395,1.05,0.279c1.4-0.612,2.757-1.325,4.261-2.067c-0.153-0.169-0.265-0.329-0.411-0.447
			C54.21,17.137,52.191,15.588,50.262,13.934z"/>
		<path d="M42.023,2.663C41.1,2.441,40.797,2.886,40.77,3.829c-0.15,5.228-0.359,10.454-0.559,15.681
			c-0.065,1.706,0.046,1.811,1.825,1.531c0.021-0.034,0.06-0.067,0.062-0.101c0.216-5.86,0.438-11.721,0.611-17.582
			C42.717,3.123,42.302,2.729,42.023,2.663z"/>
		<path d="M44.669,2.662c-0.741-0.005-1.177,0.125-1.214,1.031c-0.223,5.464-0.49,10.927-0.771,16.389
			c-0.039,0.757,0.055,1.188,0.968,1.216c0.89,0.027,1.077-0.354,1.069-1.135c-0.028-2.753,0.572-13.681,0.744-16.39
			C45.506,3.141,45.506,2.667,44.669,2.662z"/>
		<path d="M39.114,2.602c-0.927,0.005-1.005,0.506-1.024,1.226c-0.141,5.397-0.296,10.794-0.471,16.19
			c-0.023,0.71,0.074,1.127,0.939,1.119c0.796-0.007,1.035-0.309,1.027-1.068c-0.029-2.758,0.423-13.552,0.434-16.19
			C40.023,3.219,40.135,2.596,39.114,2.602z"/>
		<path d="M9.358,8.589c-0.954-0.097-1.911-0.184-2.86-0.321C5.468,8.12,4.779,7.604,4.84,6.452
			c0.059-1.103,0.653-1.635,1.882-1.706c1.517-0.087,3.036-0.139,4.551-0.251c1.279-0.095,1.543-0.483,1.597-2.156
			c0.044-1.359-0.293-1.942-1.506-1.969C8.091,0.297,4.815,0.352,1.54,0.345C0.587,0.343,0.498,0.843,0.55,1.667
			c0.107,1.71,0.111,3.429,0.096,5.144c-0.014,1.51-0.273,3.034-0.135,4.525c0.222,2.418,0.043,4.773-0.51,7.118
			c0,0.32,0,0.64,0,0.96c0.33,0.857,0.306,2.096,1.579,2.113c3.348,0.045,6.729,0.432,10.013-0.538
			c0.453-0.134,1.035-0.648,1.12-1.073c0.614-3.083,0.885-6.183-0.404-9.185C11.761,9.455,10.76,8.731,9.358,8.589z M6.646,17.689
			c-0.417,0.298-1.14,0.397-1.634,0.264c-0.263-0.071-0.397-0.825-0.484-1.29c-0.079-0.423-0.017-0.872-0.017-1.617
			c0.061-0.687,0.042-1.704,0.282-2.657c0.129-0.515,0.632-1.179,1.09-1.299c0.459-0.12,1.257,0.201,1.589,0.595
			C9.412,13.983,9.143,15.904,6.646,17.689z"/>
		<path d="M71.431,0.278c-3.507-0.066-7.016-0.038-10.614-0.038c-0.07,0.673-0.115,1.025-0.142,1.378
			c-0.518,6.707,0.467,13.301,1.472,19.897c0.118,0.775,0.563,0.729,1.095,0.716c3.153-0.076,6.307-0.144,9.46-0.228
			c0.466-0.012,0.931-0.097,1.572-0.168c0-1.474-0.041-2.867,0.008-4.256c0.113-3.191,0.338-6.379,0.387-9.571
			c0.039-2.485-0.653-4.822-2.071-6.889C72.338,0.738,71.832,0.285,71.431,0.278z M65.262,19.68
			c-1.841,0.301-1.856,0.29-1.874-1.404c-0.052-4.876-0.103-9.751-0.154-14.627c-0.004-0.388-0.001-0.776-0.001-1.152
			c0.884-0.181,1.483-0.231,1.518,0.833c0.175,5.312,0.386,10.623,0.58,15.935C65.336,19.381,65.294,19.499,65.262,19.68z
			 M66.299,2.559c0.258-0.253,0.615-0.208,0.871-0.134c1.229,0.354,2.991,2.708,3.002,3.932c0.009,1.009-1.564,2.875-2.581,3.019
			c-0.204,0.029-0.52-0.045-0.621-0.187c-0.095-0.134-0.044-0.468,0.065-0.631c0.197-0.293,0.502-0.51,0.734-0.783
			c0.943-1.111,0.883-2.264-0.164-3.274c-0.373-0.36-0.804-0.671-1.119-1.075C66.323,3.216,66.041,2.812,66.299,2.559z
			 M68.717,19.54c-0.231,0.011-0.541-0.16-0.684-0.346c-0.092-0.121-0.014-0.476,0.108-0.634c0.266-0.344,0.626-0.614,0.917-0.94
			c1.085-1.217,1.058-2.678-0.088-3.825c-0.591-0.592-1.247-1.12-1.828-1.721c-0.166-0.171-0.291-0.539-0.218-0.737
			c0.063-0.171,0.432-0.318,0.668-0.321c1.61-0.017,4.671,3.16,4.658,4.801C72.242,16.984,69.901,19.485,68.717,19.54z"/>
	</g>
</g>
</svg>
