<svg preserveAspectRatio="none" overflow="visible" style="display: block;" width="16" height="16" viewBox="0 0 16 16" fill="none" xmlns="http://www.w3.org/2000/svg">
<g id="Group">
<g id="Vector">
</g>
<path id="Vector_2" d="M4 12.6667H2C1.82319 12.6667 1.65362 12.5964 1.5286 12.4714C1.40357 12.3464 1.33333 12.1768 1.33333 12V5.33333C1.33333 5.15652 1.40357 4.98695 1.5286 4.86193C1.65362 4.7369 1.82319 4.66667 2 4.66667H4V2C4 1.82319 4.07024 1.65362 4.19526 1.5286C4.32029 1.40357 4.48986 1.33333 4.66667 1.33333H11.3333C11.5101 1.33333 11.6797 1.40357 11.8047 1.5286C11.9298 1.65362 12 1.82319 12 2V4.66667H14C14.1768 4.66667 14.3464 4.7369 14.4714 4.86193C14.5964 4.98695 14.6667 5.15652 14.6667 5.33333V12C14.6667 12.1768 14.5964 12.3464 14.4714 12.4714C14.3464 12.5964 14.1768 12.6667 14 12.6667H12V14C12 14.1768 11.9298 14.3464 11.8047 14.4714C11.6797 14.5964 11.5101 14.6667 11.3333 14.6667H4.66667C4.48986 14.6667 4.32029 14.5964 4.19526 14.4714C4.07024 14.3464 4 14.1768 4 14V12.6667ZM4 11.3333V10.6667C4 10.4899 4.07024 10.3203 4.19526 10.1953C4.32029 10.0702 4.48986 10 4.66667 10H11.3333C11.5101 10 11.6797 10.0702 11.8047 10.1953C11.9298 10.3203 12 10.4899 12 10.6667V11.3333H13.3333V6H2.66667V11.3333H4ZM5.33333 2.66667V4.66667H10.6667V2.66667H5.33333ZM5.33333 11.3333V13.3333H10.6667V11.3333H5.33333ZM3.33333 6.66667H5.33333V8H3.33333V6.66667Z" fill="black"/>
</g>
</svg>
